<svg width="24" height="24" viewBox="0 0 24 24" fill="none" xmlns="http://www.w3.org/2000/svg">
<path d="M11.51 0C8.338 0 5.034 0.537 2.694 2.694C0.5 5.174 0 8.464 0 11.525V12.467C0 15.632 0.537 18.966 2.694 21.307C5.188 23.513 8.494 24 11.569 24H12.423C15.603 24 18.951 23.47 21.306 21.306C23.514 18.811 24 15.5 24 12.423V11.57C24 8.39 23.47 5.042 21.306 2.694C18.826 0.494 15.544 0 12.482 0H11.51ZM12 3.505C13.244 3.505 14.256 4.495 14.256 5.711C14.256 6.776 13.571 7.687 12.541 7.892V9.482C14.021 9.696 15.069 10.912 15.069 12.416C15.069 14.07 13.692 15.416 11.999 15.416C10.307 15.416 8.931 14.07 8.931 12.416C8.931 12.246 8.948 12.081 8.976 11.919L7.44 11.431C7.24013 11.7735 6.95356 12.0574 6.60914 12.254C6.26472 12.4506 5.87459 12.5531 5.478 12.551C5.241 12.551 5.007 12.514 4.78 12.441C3.597 12.066 2.947 10.819 3.331 9.661C3.4829 9.21351 3.77207 8.82533 4.15737 8.5517C4.54266 8.27808 5.00445 8.13296 5.477 8.137C5.714 8.137 5.948 8.173 6.175 8.245C6.45538 8.33253 6.71571 8.47459 6.94104 8.66301C7.16636 8.85144 7.35224 9.08253 7.488 9.343C7.692 9.734 7.77 10.166 7.72 10.592L9.255 11.08C9.695 10.22 10.633 9.627 11.639 9.481V7.892C10.61 7.687 9.743 6.776 9.743 5.711C9.743 4.494 10.755 3.505 12 3.505ZM12 4.387C11.253 4.387 10.646 4.981 10.646 5.711C10.646 6.441 11.253 7.035 12 7.035C12.746 7.035 13.354 6.441 13.354 5.711C13.354 4.981 12.746 4.387 12 4.387ZM18.522 8.137C19.502 8.137 20.365 8.75 20.668 9.662C20.7602 9.93712 20.7958 10.2281 20.7726 10.5173C20.7494 10.8065 20.6679 11.0881 20.533 11.345C20.3974 11.6055 20.2114 11.8365 19.9858 12.0247C19.7603 12.2128 19.4996 12.3543 19.219 12.441C18.992 12.514 18.758 12.551 18.521 12.551C18.1244 12.5531 17.7343 12.4506 17.3899 12.254C17.0454 12.0574 16.7589 11.7735 16.559 11.431L15.925 11.632L15.647 10.794L16.279 10.592C16.2244 10.0822 16.3488 9.56927 16.6309 9.1411C16.9129 8.71292 17.3351 8.39614 17.825 8.245C18.0504 8.17322 18.2855 8.13679 18.522 8.137ZM5.476 9.02C4.888 9.02 4.371 9.388 4.189 9.935C4.13517 10.1015 4.11499 10.2771 4.12964 10.4515C4.1443 10.6259 4.19349 10.7957 4.27435 10.9509C4.35522 11.1061 4.46615 11.2437 4.60068 11.3557C4.73522 11.4676 4.89067 11.5517 5.058 11.603C5.194 11.646 5.335 11.668 5.477 11.668C6.065 11.668 6.582 11.3 6.764 10.753C6.81937 10.5879 6.84074 10.4133 6.82681 10.2397C6.81289 10.0661 6.76397 9.89717 6.683 9.743C6.60144 9.58685 6.48984 9.44833 6.35462 9.33542C6.21939 9.2225 6.0632 9.1374 5.895 9.085C5.75921 9.04173 5.61852 9.0198 5.476 9.02ZM18.521 9.02C18.379 9.02 18.239 9.041 18.102 9.085C17.9347 9.13631 17.7792 9.22039 17.6447 9.33234C17.5101 9.44429 17.3992 9.58188 17.3184 9.7371C17.2375 9.89232 17.1883 10.0621 17.1736 10.2365C17.159 10.4109 17.1792 10.5865 17.233 10.753C17.415 11.3 17.933 11.668 18.52 11.668C18.6625 11.6678 18.8041 11.6459 18.94 11.603C19.284 11.493 19.563 11.26 19.727 10.944C19.892 10.629 19.92 10.271 19.809 9.935C19.7179 9.66636 19.5444 9.43331 19.3131 9.26902C19.0818 9.10474 18.8047 9.0176 18.521 9.02ZM12 10.474C10.905 10.474 10.014 11.345 10.014 12.416C10.014 13.486 10.904 14.357 12 14.357C13.094 14.357 13.985 13.487 13.985 12.417C13.985 11.345 13.095 10.474 12 10.474ZM9.294 15.305L10.024 15.824L9.634 16.35C10.343 17.107 10.435 18.275 9.794 19.137C9.58111 19.4202 9.30515 19.6499 8.98802 19.8079C8.67088 19.9658 8.3213 20.0477 7.967 20.047C7.489 20.047 7.03 19.9 6.642 19.625C6.40352 19.4581 6.20095 19.245 6.04625 18.9985C5.89155 18.7519 5.78787 18.4768 5.74134 18.1894C5.69482 17.9021 5.7064 17.6083 5.77539 17.3255C5.84438 17.0427 5.96938 16.7766 6.143 16.543C6.45397 16.1287 6.89674 15.8327 7.3984 15.7037C7.90007 15.5746 8.43072 15.6202 8.903 15.833L9.294 15.305ZM14.704 15.305L15.096 15.833C15.5684 15.6211 16.0988 15.576 16.6002 15.705C17.1017 15.834 17.5444 16.1295 17.856 16.543C18.0295 16.7767 18.1544 17.0428 18.2233 17.3256C18.2922 17.6083 18.3037 17.902 18.2572 18.1894C18.2107 18.4767 18.1071 18.7517 17.9525 18.9983C17.7978 19.2449 17.5954 19.458 17.357 19.625C16.9701 19.9002 16.5068 20.0474 16.032 20.046C15.6777 20.0467 15.3281 19.9648 15.011 19.8069C14.6938 19.6489 14.4179 19.4192 14.205 19.136C13.9004 18.7269 13.7496 18.2236 13.7788 17.7144C13.8081 17.2052 14.0156 16.7225 14.365 16.351L13.975 15.824L14.704 15.305ZM7.97 16.515C7.75723 16.5147 7.54732 16.564 7.35691 16.659C7.1665 16.7539 7.00082 16.8919 6.873 17.062C6.433 17.652 6.569 18.482 7.173 18.911C7.46411 19.1186 7.82482 19.2041 8.17813 19.1494C8.53144 19.0946 8.84936 18.9039 9.064 18.618C9.504 18.028 9.369 17.198 8.764 16.768C8.53209 16.6033 8.25447 16.5151 7.97 16.516V16.515ZM16.029 16.515C15.742 16.515 15.468 16.603 15.234 16.769C15.0911 16.8693 14.9697 16.9971 14.877 17.1451C14.7843 17.293 14.7221 17.458 14.6943 17.6304C14.6664 17.8027 14.6733 17.9789 14.7147 18.1486C14.756 18.3182 14.8309 18.4778 14.935 18.618C15.1498 18.9037 15.4677 19.0942 15.8209 19.149C16.1742 19.2037 16.5348 19.1183 16.826 18.911C16.9692 18.8108 17.0908 18.683 17.1837 18.535C17.2765 18.387 17.3388 18.2218 17.3668 18.0494C17.3948 17.8769 17.3879 17.7006 17.3465 17.5308C17.3051 17.361 17.2302 17.2013 17.126 17.061C16.998 16.8913 16.8322 16.7537 16.6418 16.6591C16.4514 16.5645 16.2416 16.5155 16.029 16.516V16.515Z" fill="white"/>
</svg>
